<?xml version="1.0" encoding="utf-8"?>
<!-- Generator: Adobe Illustrator 24.0.2, SVG Export Plug-In . SVG Version: 6.00 Build 0)  -->
<svg version="1.1" xmlns="http://www.w3.org/2000/svg" xmlns:xlink="http://www.w3.org/1999/xlink" x="0px" y="0px"
	 viewBox="0 0 2138.79 1263.83" style="enable-background:new 0 0 2138.79 1263.83;" xml:space="preserve">
<style type="text/css">
	.st0{fill:none;}
	.st1{fill:#B4A481;}
	.st2{fill:#494842;}
</style>
<g id="Background">
	<rect x="882.31" y="521.36" class="st0" width="374.17" height="221.1"/>
</g>
<g id="PayOff">
</g>
<g id="Pueblo_Bonito">
	<g>
		<g>
			<path class="st1" d="M539.88,1005.34h22.7c6.02,0,10.81,0.64,14.04,3.09c2.36,1.87,3.22,3.48,3.22,6.64v2.89
				c0,3.87-2.08,5.86-5.01,6.95l-0.29,0.13c0.36,0.13,0.79,0.32,1.22,0.51c3.44,1.42,5.44,3.61,5.44,7.28v2.84
				c0,3.41-1.15,4.95-3.8,6.95c-3.08,2.32-7.09,2.96-14.18,2.96h-23.35V1005.34z M547.76,1010.95v11.53h16.97
				c3.15,0,4.15-0.32,5.59-1.29c1.15-0.84,1.72-1.93,1.72-4.32c0-2.44-0.5-3.35-1.65-4.32c-1.36-1.09-3.65-1.6-8.31-1.6H547.76z
				 M547.76,1027.95v12.11h15.68c4.01,0,6.16-0.39,7.66-1.36c1.5-0.96,2.29-2.51,2.29-4.63c0-2.13-0.57-3.67-2.08-4.7
				c-1.36-0.97-3.65-1.42-6.73-1.42H547.76z"/>
			<path class="st1" d="M605.02,1005.34h36.02v5.6H612.9v11.72h26.35v5.54H612.9v11.85h28.14v5.54h-36.02V1005.34z"/>
			<path class="st1" d="M688,1045.59h-7.88v-11.53l-19.91-28.72h8.81l14.32,20.73h1.5l14.39-20.73h8.67L688,1034.07V1045.59z"/>
			<path class="st1" d="M771.97,1010.04c3.37,2.19,3.87,4.19,3.87,9.34v12.04c0,5.09-0.5,7.15-3.87,9.28
				c-4.65,2.96-10.81,5.6-20.48,5.6c-9.67,0-15.76-2.64-20.48-5.6c-3.37-2.06-3.87-4.19-3.87-9.28v-12.04c0-5.15,0.5-7.21,3.87-9.34
				c4.73-2.96,10.81-5.67,20.48-5.67C761.16,1004.38,767.32,1007.08,771.97,1010.04z M737.1,1014.16c-1.5,1.09-2.08,2.58-2.08,4.83
				v12.81c0,2.26,0.57,3.67,2.08,4.77c2.72,1.87,7.95,3.99,14.4,3.99c6.44,0,11.74-2.13,14.46-3.99c1.36-1.09,2.01-2.51,2.01-4.77
				V1019c0-2.26-0.64-3.67-2.01-4.83c-2.79-1.87-8.02-3.99-14.46-3.99C745.05,1010.17,739.82,1012.3,737.1,1014.16z"/>
			<path class="st1" d="M809.82,1045.59h-7.88v-40.25h7.16l31.44,30.33v-30.33h7.88v40.25h-7.16l-31.44-30.07V1045.59z"/>
			<path class="st1" d="M875.39,1005.34h21.7c9.24,0,14.97,1.74,19.27,4.7c3.51,2.38,4.01,4.51,4.01,9.6v11.65
				c0,5.15-0.43,7.34-4.08,9.79c-4.22,2.84-9.95,4.51-19.19,4.51h-21.7V1005.34z M883.27,1010.95v29.1h12.75
				c6.73,0,11.67-1.36,14.32-3.22c1.57-1.22,2.15-2.89,2.15-5.15v-12.43c0-2.26-0.57-3.86-2.15-5.09
				c-2.65-1.87-7.59-3.22-14.32-3.22H883.27z"/>
			<path class="st1" d="M1015.28,1028.14h-29.15v17.45h-7.88v-40.25h7.88v17.19h29.15v-17.19h7.88v40.25h-7.88V1028.14z"/>
			<path class="st1" d="M1094.02,1010.04c3.36,2.19,3.87,4.19,3.87,9.34v12.04c0,5.09-0.5,7.15-3.87,9.28
				c-4.66,2.96-10.81,5.6-20.48,5.6c-9.67,0-15.76-2.64-20.48-5.6c-3.37-2.06-3.87-4.19-3.87-9.28v-12.04c0-5.15,0.5-7.21,3.87-9.34
				c4.73-2.96,10.81-5.67,20.48-5.67C1083.21,1004.38,1089.37,1007.08,1094.02,1010.04z M1059.15,1014.16
				c-1.5,1.09-2.08,2.58-2.08,4.83v12.81c0,2.26,0.57,3.67,2.08,4.77c2.72,1.87,7.95,3.99,14.4,3.99c6.44,0,11.74-2.13,14.46-3.99
				c1.36-1.09,2.01-2.51,2.01-4.77V1019c0-2.26-0.64-3.67-2.01-4.83c-2.79-1.87-8.02-3.99-14.46-3.99
				C1067.1,1010.17,1061.87,1012.3,1059.15,1014.16z"/>
			<path class="st1" d="M1122.78,1045.08v-5.99c5.09,0.97,12.18,1.54,17.62,1.54c5.73,0,10.17-0.58,12.1-1.48
				c1.57-0.77,2.08-1.87,2.08-4.06c0-2.83-1.79-4.05-7.59-5.34l-12.03-2.9c-5.01-1.15-8.02-2.38-10.02-4.12
				c-1.79-1.54-2.44-2.9-2.44-5.34v-2.96c0-2.9,1.29-4.89,4.37-6.77c2.94-1.74,9.02-2.96,16.97-2.96c6.08,0,11.24,0.39,16.04,1.29
				v5.99c-4.73-0.97-10.96-1.54-16.9-1.54c-5.8,0-9.02,0.52-10.67,1.48c-1.5,0.91-1.86,2.06-1.86,3.48c0,2.77,0.78,3.99,8.16,5.6
				l12.6,3.03c4.44,1.03,7.09,2.13,8.74,3.54c2,1.61,2.64,3.22,2.64,5.6v3.42c0,3.67-2.15,6.05-6.01,7.67
				c-3.58,1.42-9.38,1.99-16.55,1.99C1133.3,1046.24,1128,1045.91,1122.78,1045.08z"/>
			<path class="st1" d="M1196.15,1036.7v8.89h-7.88v-40.25h18.84c8.95,0,13.53,1.87,17.9,4.77c3.51,2.32,3.94,4.32,3.94,9.53v2.83
				c0,5.22-0.43,7.21-3.94,9.46c-4.37,2.9-8.95,4.77-17.9,4.77H1196.15z M1196.15,1011.01v20.09h10.38c6.02,0,9.96-1.54,12.39-3.22
				c1.58-1.23,2.15-2.64,2.15-5.03v-3.6c0-2.44-0.57-3.8-2.15-5.02c-2.43-1.74-6.37-3.22-12.39-3.22H1196.15z"/>
			<path class="st1" d="M1253.7,1045.59v-40.25h7.88v40.25H1253.7z"/>
			<path class="st1" d="M1308.97,1010.95v34.64h-7.88v-34.64h-17.33v-5.6h42.54v5.6H1308.97z"/>
			<path class="st1" d="M1376.84,1036.19h-25.64l-4.51,9.4h-8.24l19.19-40.25h12.82l19.2,40.25h-8.31L1376.84,1036.19z
				 M1353.85,1030.65h20.34l-9.17-19.25h-2.01L1353.85,1030.65z"/>
			<path class="st1" d="M1411.33,1005.34h7.88v34.71h25.78v5.54h-33.66V1005.34z"/>
			<path class="st1" d="M1468.16,1045.59v-40.25h7.88v40.25H1468.16z"/>
			<path class="st1" d="M1523.44,1010.95v34.64h-7.88v-34.64h-17.33v-5.6h42.54v5.6H1523.44z"/>
			<path class="st1" d="M1585.42,1045.59h-7.88v-11.53l-19.91-28.72h8.81l14.32,20.73h1.51l14.39-20.73h8.66l-19.91,28.72V1045.59z"
				/>
		</g>
		<g>
			<g>
				<path class="st2" d="M187.16,804.53h59.7c14.65,0,25.88,2.8,33.68,8.39c7.8,5.6,11.7,13.69,11.7,24.28s-3.9,18.71-11.7,24.35
					c-7.8,5.65-19.03,8.47-33.68,8.47h-16.74v-7.56h10.08c9.95,0,17.01-2.02,21.18-6.05c4.17-4.03,6.25-10.44,6.25-19.21
					c0-8.77-2.05-15.13-6.15-19.06c-4.1-3.93-11.19-5.9-21.28-5.9h-16.13v88.03c0,1.62,0.1,2.8,0.3,3.56
					c0.2,0.76,0.87,1.69,2.02,2.8c1.14,1.11,3.03,2.07,5.65,2.87c2.62,0.81,6.22,1.61,10.79,2.42v1.51h-55.66v-1.51
					c4.03-1.11,6.99-2.29,8.87-3.55c1.88-1.26,2.99-2.39,3.33-3.4c0.33-1.01,0.5-2.57,0.5-4.69v-82.59c0-2.12-0.17-3.68-0.5-4.69
					c-0.34-1.01-1.45-2.14-3.33-3.4c-1.89-1.26-4.84-2.44-8.87-3.55V804.53z"/>
				<path class="st2" d="M440.12,817.69v56.87c0,13.21-4.23,23.24-12.71,30.1c-8.47,6.86-21.04,10.29-37.71,10.29
					c-17.75,0-30.99-3.48-39.73-10.44c-8.74-6.96-13.11-16.94-13.11-29.95v-56.87c0-2.12-0.17-3.68-0.5-4.69
					c-0.34-1.01-1.45-2.14-3.33-3.4c-1.88-1.26-4.84-2.44-8.87-3.55v-1.51h49.61v1.51c-4.03,1.11-6.99,2.3-8.87,3.55
					c-1.88,1.26-2.99,2.4-3.33,3.4c-0.34,1.01-0.5,2.57-0.5,4.69v58.08c0,10.19,2.65,17.62,7.97,22.31
					c5.31,4.69,13.81,7.03,25.51,7.03c11.43,0,19.97-2.47,25.61-7.41c5.65-4.94,8.47-12.65,8.47-23.14v-56.87
					c0-2.12-0.2-3.68-0.61-4.69c-0.4-1.01-1.92-2.14-4.54-3.4c-2.62-1.26-6.76-2.44-12.4-3.55v-1.51h42.35v1.51
					c-4.3,1.11-7.43,2.3-9.38,3.55c-1.95,1.26-3.09,2.4-3.43,3.4C440.28,814.01,440.12,815.57,440.12,817.69z"/>
				<path class="st2" d="M589.57,889.68l-2.02,23.75h-98.01v-1.51c4.03-1.11,6.99-2.29,8.87-3.55c1.88-1.26,2.99-2.39,3.33-3.4
					c0.33-1.01,0.5-2.57,0.5-4.69v-82.59c0-2.12-0.17-3.68-0.5-4.69c-0.34-1.01-1.45-2.14-3.33-3.4c-1.89-1.26-4.84-2.44-8.87-3.55
					v-1.51h97.41v23.75h-2.02c-3.36-6.55-6.19-10.86-8.47-12.93c-2.29-2.07-5.31-3.1-9.08-3.1h-40.94v42.05h41.95v7.56h-41.95v43.86
					h41.55c3.9,0,7.02-0.93,9.38-2.8c2.35-1.86,5.75-6.28,10.18-13.24H589.57z"/>
				<path class="st2" d="M694.44,858.83v0.76c12.5,0.4,21.95,2.95,28.34,7.64c6.38,4.69,9.58,10.46,9.58,17.32
					c0,19.26-16.34,28.89-49.01,28.89h-56.07v-1.51c4.03-1.11,6.99-2.29,8.87-3.55c1.88-1.26,2.99-2.39,3.33-3.4
					c0.33-1.01,0.5-2.57,0.5-4.69v-82.59c0-2.12-0.17-3.68-0.5-4.69c-0.34-1.01-1.45-2.14-3.33-3.4c-1.89-1.26-4.84-2.44-8.87-3.55
					v-1.51h57.28c13.58,0,23.93,2.19,31.06,6.58c7.12,4.39,10.69,11.52,10.69,21.4c0,7.36-2.62,13.39-7.87,18.08
					C713.2,855.27,705.2,858.02,694.44,858.83z M664.19,905.72h13.51c10.62,0,18.28-1.46,22.99-4.39c4.7-2.92,7.06-8.52,7.06-16.79
					c0-8.07-2.52-13.61-7.56-16.64c-5.04-3.02-13.01-4.54-23.9-4.54h-6.05v-7.71h4.64c9.41,0,16.23-1.61,20.47-4.84
					c4.24-3.23,6.35-8.97,6.35-17.24c0-8.27-2.12-13.89-6.35-16.87c-4.24-2.97-10.99-4.46-20.27-4.46h-10.89V905.72z"/>
				<path class="st2" d="M867.89,913.43h-98.01v-1.51c4.03-1.11,6.99-2.29,8.87-3.55c1.88-1.26,2.99-2.39,3.33-3.4
					c0.33-1.01,0.5-2.57,0.5-4.69v-82.59c0-2.12-0.17-3.68-0.5-4.69c-0.34-1.01-1.45-2.14-3.33-3.4c-1.89-1.26-4.84-2.44-8.87-3.55
					v-1.51h49.61v1.51c-4.03,1.11-6.99,2.3-8.87,3.55c-1.88,1.26-2.99,2.4-3.33,3.4c-0.34,1.01-0.5,2.57-0.5,4.69v88.03h41.55
					c3.9,0,7.02-0.93,9.38-2.8c2.35-1.86,5.75-6.28,10.18-13.24h2.02L867.89,913.43z"/>
				<path class="st2" d="M910.15,900.12c-11.9-9.88-17.85-23.6-17.85-41.14c0-17.55,5.98-31.26,17.95-41.14
					c11.97-9.88,27.29-14.82,45.98-14.82c18.82,0,34.22,4.94,46.18,14.82c11.97,9.88,17.95,23.6,17.95,41.14
					c0,17.55-5.98,31.26-17.95,41.14c-11.97,9.88-27.36,14.82-46.18,14.82C937.4,914.95,922.04,910.01,910.15,900.12z M917.1,858.98
					c0,32.77,13.04,49.16,39.13,49.16c26.22,0,39.33-16.39,39.33-49.16c0-32.77-13.11-49.16-39.33-49.16
					C930.14,809.82,917.1,826.21,917.1,858.98z"/>
				<path class="st2" d="M1194.41,858.83v0.76c12.5,0.4,21.95,2.95,28.34,7.64c6.38,4.69,9.58,10.46,9.58,17.32
					c0,19.26-16.34,28.89-49.01,28.89h-56.07v-1.51c4.03-1.11,6.99-2.29,8.87-3.55c1.88-1.26,2.99-2.39,3.33-3.4
					c0.33-1.01,0.5-2.57,0.5-4.69v-82.59c0-2.12-0.17-3.68-0.5-4.69c-0.34-1.01-1.45-2.14-3.33-3.4c-1.89-1.26-4.84-2.44-8.87-3.55
					v-1.51h57.28c13.58,0,23.93,2.19,31.06,6.58c7.12,4.39,10.69,11.52,10.69,21.4c0,7.36-2.62,13.39-7.87,18.08
					C1213.16,855.27,1205.16,858.02,1194.41,858.83z M1164.15,905.72h13.51c10.62,0,18.28-1.46,22.99-4.39
					c4.7-2.92,7.06-8.52,7.06-16.79c0-8.07-2.52-13.61-7.56-16.64c-5.04-3.02-13.01-4.54-23.9-4.54h-6.05v-7.71h4.64
					c9.41,0,16.23-1.61,20.47-4.84c4.24-3.23,6.35-8.97,6.35-17.24c0-8.27-2.12-13.89-6.35-16.87c-4.24-2.97-10.99-4.46-20.27-4.46
					h-10.89V905.72z"/>
				<path class="st2" d="M1287.46,900.12c-11.9-9.88-17.85-23.6-17.85-41.14c0-17.55,5.98-31.26,17.95-41.14
					c11.97-9.88,27.29-14.82,45.98-14.82c18.82,0,34.22,4.94,46.18,14.82c11.97,9.88,17.95,23.6,17.95,41.14
					c0,17.55-5.98,31.26-17.95,41.14c-11.97,9.88-27.36,14.82-46.18,14.82C1314.72,914.95,1299.36,910.01,1287.46,900.12z
					 M1294.42,858.98c0,32.77,13.04,49.16,39.13,49.16c26.22,0,39.33-16.39,39.33-49.16c0-32.77-13.11-49.16-39.33-49.16
					C1307.46,809.82,1294.42,826.21,1294.42,858.98z"/>
				<path class="st2" d="M1561.04,804.53v1.51c-4.3,1.11-7.43,2.3-9.38,3.55c-1.95,1.26-3.09,2.4-3.43,3.4
					c-0.34,1.01-0.5,2.57-0.5,4.69v96.05h-8.77l-80.98-85.72v72.26c0,2.12,0.2,3.68,0.6,4.69c0.4,1.01,1.98,2.14,4.74,3.4
					c2.75,1.26,7.02,2.44,12.81,3.55v1.51h-41.75v-1.51c4.3-1.11,7.46-2.29,9.48-3.55c2.02-1.26,3.19-2.4,3.53-3.41
					c0.33-1.01,0.5-2.57,0.5-4.69v-82.93l-12.1-12.81h30.66l70.99,75.17v-62.02c0-2.12-0.2-3.68-0.6-4.69
					c-0.4-1.01-1.99-2.14-4.74-3.4c-2.76-1.26-7.03-2.44-12.81-3.55v-1.51H1561.04z"/>
				<path class="st2" d="M1637.58,817.69v82.59c0,2.12,0.17,3.68,0.5,4.69c0.33,1.01,1.44,2.14,3.33,3.4
					c1.88,1.26,4.84,2.45,8.87,3.55v1.51h-49.61v-1.51c4.03-1.11,6.99-2.29,8.87-3.55c1.88-1.26,2.99-2.39,3.33-3.4
					c0.33-1.01,0.5-2.57,0.5-4.69v-82.59c0-2.12-0.17-3.68-0.5-4.69c-0.34-1.01-1.45-2.14-3.33-3.4c-1.89-1.26-4.84-2.44-8.87-3.55
					v-1.51h49.61v1.51c-4.03,1.11-6.99,2.3-8.87,3.55c-1.88,1.26-2.99,2.4-3.33,3.4C1637.75,814.01,1637.58,815.57,1637.58,817.69z"
					/>
				<path class="st2" d="M1787.87,828.27h-2.02c-3.36-6.55-6.22-10.86-8.57-12.93c-2.35-2.07-5.34-3.1-8.97-3.1h-20.17v88.03
					c0,2.12,0.17,3.68,0.5,4.69c0.33,1.01,1.44,2.14,3.33,3.4c1.88,1.26,4.84,2.45,8.87,3.55v1.51h-49.61v-1.51
					c4.03-1.11,6.99-2.29,8.87-3.55c1.88-1.26,2.99-2.39,3.33-3.4c0.33-1.01,0.5-2.57,0.5-4.69v-88.03h-20.17
					c-3.77,0-6.83,1.03-9.18,3.1c-2.35,2.07-5.14,6.38-8.37,12.93h-2.02v-23.75h103.66V828.27z"/>
				<path class="st2" d="M1841.41,900.12c-11.9-9.88-17.85-23.6-17.85-41.14c0-17.55,5.98-31.26,17.95-41.14
					c11.97-9.88,27.29-14.82,45.98-14.82c18.82,0,34.22,4.94,46.18,14.82c11.97,9.88,17.95,23.6,17.95,41.14
					c0,17.55-5.98,31.26-17.95,41.14c-11.97,9.88-27.36,14.82-46.18,14.82C1868.67,914.95,1853.31,910.01,1841.41,900.12z
					 M1848.37,858.98c0,32.77,13.04,49.16,39.13,49.16c26.22,0,39.33-16.39,39.33-49.16c0-32.77-13.11-49.16-39.33-49.16
					C1861.41,809.82,1848.37,826.21,1848.37,858.98z"/>
			</g>
			<path class="st1" d="M935.21,505.14c18.34,0,32.07,1.66,43.87,4.65c6.63,16.81,17.82,31.33,32.05,42.02
				c-26.93-13.03-44.6-24.48-68.54-29.75c-32.77-7.22-61.79-9.14-93.58-8.95c-0.23-1.31-0.45-2.62-0.66-3.94
				C886.07,508.14,910.31,505.14,935.21,505.14z M1253.37,346.8c-0.61-0.88-1.23-1.76-1.86-2.64
				c-19.71,18.58-29.79,27.31-43.72,39.08c-25.52,21.55-44.33,36.42-53.65,43.65c4.5,8.04,7.89,16.79,9.96,26.04
				c9.56-12.51,29.2-37.75,53.54-66.46C1230.15,371.7,1239.99,360.15,1253.37,346.8z M1102.32,252.85
				c0.08,20.02-1.3,37.75-3.37,63.47c-1.07,13.29-4.77,45.32-6.91,63.5c9.14,2.18,17.78,5.66,25.71,10.22
				c-1.98-14.52-4.98-37.13-6.35-50.18c-4.33-41.36-5.37-54.89-6.12-86.56C1104.29,253.15,1103.31,252.99,1102.32,252.85z
				 M1289.78,513.11c0.23-1.31,0.45-2.62,0.66-3.94c-37.71-1.03-61.95-4.03-86.85-4.03c-18.34,0-32.06,1.65-43.87,4.65
				c-6.63,16.81-17.82,31.33-32.05,42.02c26.93-13.03,44.59-24.48,68.54-29.75C1228.97,514.84,1257.99,512.92,1289.78,513.11z
				 M1331.42,481.15c-29.85,0.48-41.12,0.05-65.25-1.9c-25.3-2.04-40.2-3.43-76.47-7.6c1.68-1.96,7.72-9.79,8.53-10.71
				c1.61-0.16,25.79-4.43,61.29-8.1c11.79-1.22,23.19-1.9,32.4-2.29c-0.13-1.23-0.27-2.45-0.42-3.67
				c-11.33-0.25-19.72-0.88-31.31-1.97c-14.84-1.39-22.48-2.06-44.56-5.28c1.84-2.07,16.02-19.2,17.15-20.45
				c16.06-1.18,19.78-1.42,32.84-1.86c6.23-0.21,12.86-0.41,20.11-0.5c-0.28-1.05-0.56-2.1-0.86-3.14
				c-4.71-0.05-10.59-0.16-18.25-0.36c-20.02-0.53-26.35-1.24-27.72-1.32c13.86-16.05,22.82-25.76,31.99-35.23
				c-0.51-1.06-1.03-2.11-1.56-3.15c-19.61,19.14-26.73,25.52-46.1,41.91c-18.21,15.4-26.73,22.91-57.47,47.16
				c0.45,3.78,0.68,7.62,0.68,11.51c0,8.6-1.12,16.94-3.22,24.88c11.25-1.55,34.39-4.54,68.14-8.01
				c42.74-4.39,72.09-5.79,99.92-5.61C1331.33,484.02,1331.39,482.59,1331.42,481.15z M1254.81,288.93
				c-16.56,17.35-19.3,19.49-47.63,44.45c-31.66,27.9-60.12,49.51-60.82,50.12l-1.62-15.55c0.18-0.22,18.7-23.73,37.92-46.32
				c8.38-9.85,16.5-18.33,23.09-24.85c-0.91-0.7-1.82-1.39-2.73-2.07c-5.32,5.17-11.71,11.25-18.72,17.63
				c-19.26,17.54-41.49,34.65-41.51,34.67c-0.24-4.29-2.37-28.56-2.38-28.75c0.18-0.23,11.4-13.58,26.67-29.94
				c3.52-3.77,6.81-7.29,9.75-10.44c-0.98-0.54-1.96-1.06-2.94-1.58c-2.14,2.14-4.47,4.41-6.97,6.76
				c-18.69,17.51-26.28,24.01-27.27,24.81c-1.03-14.84-1.36-33.72-1.47-46.64c-1.16-0.37-2.33-0.74-3.5-1.1
				c-0.05,15.59-0.55,42.86-2.97,74.11c-1.32,17.12-4.18,45.05-5.85,61.04c9.15,6.56,17.11,14.67,23.5,23.94
				c14.23-18.99,18.15-23.76,40.13-50.7c31.17-38.2,43.98-52.46,68.27-76.58C1256.79,290.92,1255.8,289.92,1254.81,288.93z
				 M921.15,386.46c24.34,28.72,43.98,53.95,53.54,66.46c2.07-9.25,5.46-18,9.96-26.04c-9.33-7.23-28.14-22.1-53.66-43.65
				c-13.93-11.76-24.01-20.49-43.72-39.07c-0.63,0.87-1.24,1.75-1.86,2.64C898.8,360.15,908.64,371.7,921.15,386.46z
				 M1039.84,316.32c-2.07-25.72-3.45-43.45-3.37-63.47c-0.99,0.15-1.98,0.3-2.96,0.46c-0.75,31.67-1.79,45.19-6.12,86.56
				c-1.37,13.05-4.37,35.65-6.35,50.18c7.93-4.57,16.57-8.04,25.71-10.22C1044.61,361.64,1040.91,329.6,1039.84,316.32z
				 M807.52,485.46c27.83-0.17,57.18,1.22,99.92,5.61c33.74,3.47,56.89,6.46,68.14,8.01c-2.1-7.94-3.22-16.28-3.22-24.88
				c0-3.9,0.24-7.74,0.68-11.51c-30.74-24.26-39.26-31.76-57.47-47.16c-19.37-16.39-26.49-22.77-46.1-41.91
				c-0.53,1.05-1.05,2.1-1.56,3.15c9.16,9.47,18.13,19.18,31.99,35.23c-1.37,0.08-7.71,0.8-27.72,1.32
				c-7.67,0.2-13.54,0.31-18.25,0.36c-0.29,1.04-0.58,2.09-0.86,3.14c7.25,0.09,13.89,0.29,20.11,0.5
				c13.06,0.44,16.79,0.68,32.84,1.86c1.13,1.25,15.31,18.37,17.15,20.45c-22.09,3.22-29.72,3.88-44.56,5.28
				c-11.59,1.09-19.99,1.71-31.31,1.97c-0.15,1.22-0.29,2.44-0.42,3.67c9.21,0.39,20.62,1.07,32.4,2.29
				c35.5,3.66,59.68,7.94,61.29,8.1c0.81,0.92,6.85,8.75,8.53,10.71c-36.27,4.17-51.17,5.56-76.47,7.6
				c-24.13,1.95-35.4,2.38-65.25,1.9C807.4,482.59,807.45,484.02,807.52,485.46z M1007.07,334.23c-2.42-31.25-2.92-58.53-2.97-74.11
				c-1.17,0.36-2.33,0.72-3.5,1.1c-0.1,12.91-0.44,31.79-1.47,46.63c-0.98-0.8-8.57-7.3-27.27-24.81c-2.5-2.35-4.83-4.61-6.97-6.76
				c-0.98,0.52-1.97,1.05-2.94,1.58c2.95,3.15,6.23,6.67,9.75,10.44c15.27,16.36,26.49,29.71,26.67,29.94
				c-0.01,0.19-2.14,24.47-2.38,28.75c-0.03-0.02-22.26-17.13-41.51-34.67c-7-6.38-13.4-12.47-18.72-17.63
				c-0.92,0.68-1.83,1.37-2.73,2.07c6.6,6.52,14.71,15,23.09,24.85c19.22,22.6,37.74,46.1,37.92,46.32l-1.62,15.55
				c-0.71-0.61-29.16-22.22-60.82-50.12c-28.33-24.96-31.07-27.1-47.63-44.45c-0.99,0.99-1.98,1.99-2.96,3
				c24.29,24.12,37.1,38.38,68.27,76.58c21.98,26.94,25.9,31.71,40.13,50.7c6.39-9.27,14.35-17.38,23.5-23.94
				C1011.25,379.28,1008.39,351.35,1007.07,334.23z M1083,378.11c-1.57-13.9-4.14-38.23-7.36-74.36
				c-3.56-39.92-4.41-83.88-4.54-91.66c-0.57,0-1.14-0.01-1.7-0.01c-0.57,0-1.14,0.01-1.71,0.01c-0.13,7.77-0.98,51.73-4.54,91.66
				c-3.22,36.13-5.79,60.46-7.36,74.36c4.45-0.62,8.99-0.95,13.6-0.95C1074.01,377.15,1078.55,377.48,1083,378.11z M856.59,543.55
				c0.48,1.47,0.98,2.94,1.49,4.4c9.47-1.88,20.8-2.95,33.72-2.95c80.84,0,90.58,48.93,177.6,48.93s96.76-48.93,177.6-48.93
				c12.92,0,24.24,1.07,33.72,2.95c0.51-1.46,1.01-2.93,1.49-4.4c-12.92-3.16-31.52-5.94-48.11-5.94c-79.74,0-88.09,34.3-164.7,34.3
				s-84.96-34.3-164.7-34.3C888.11,537.61,869.51,540.39,856.59,543.55z M871.93,579.52c0.69,1.3,1.4,2.59,2.12,3.88
				c0.05-0.01,0.1-0.01,0.15-0.02c10.54-1.8,22.52-2.44,35.76-1.76c68.59,3.61,81.38,47.58,159.44,47.58
				c78.06,0,90.84-43.97,159.44-47.58c13.24-0.68,25.22-0.04,35.76,1.76c0.05,0.01,0.1,0.02,0.15,0.02
				c0.72-1.28,1.42-2.58,2.12-3.88c-4.34-1.07-10.3-2.15-16.28-2.96c-10.65-1.44-22.34-1.8-33.2-1.18
				c-63.78,3.62-78.27,33-147.99,33c-69.72,0-84.21-29.38-147.99-33c-10.86-0.62-22.55-0.26-33.21,1.18
				C882.22,577.37,876.26,578.45,871.93,579.52z M893.52,612.54c0.98,1.25,1.97,2.49,2.98,3.71c10.45-0.86,20.95-0.57,31.62,0.78
				c56.35,7.22,72.18,46.24,141.27,46.24c69.09,0,84.93-39.02,141.27-46.24c10.67-1.35,21.17-1.64,31.62-0.78
				c1.01-1.22,2-2.46,2.98-3.71c-3.93-0.7-9.89-1.41-15.09-1.8c-9.98-0.76-20.02-0.11-29.5,1.2c-47.79,6.62-68.44,31.7-131.29,31.7
				c-62.84,0-83.5-25.07-131.28-31.7c-9.49-1.32-19.53-1.97-29.51-1.21C903.41,611.13,897.45,611.84,893.52,612.54z M1069.39,677.72
				c-70.11,0-94.21-34-140.39-34c-1.67,0-3.6,0.04-5.54,0.1c1.46,1.26,2.94,2.5,4.44,3.72c58.31,4.45,73.64,48.08,141.49,48.08
				c67.85,0,83.18-43.63,141.49-48.08c1.49-1.22,2.97-2.46,4.44-3.72c-1.94-0.06-3.86-0.1-5.54-0.1
				C1163.61,643.72,1139.51,677.72,1069.39,677.72z"/>
		</g>
	</g>
</g>
</svg>
