<?xml version="1.0" encoding="UTF-8"?><svg id="Capa_1" xmlns="http://www.w3.org/2000/svg" width="186.15" height="110" viewBox="0 0 186.15 110"><defs><style>.cls-1{fill:none;}.cls-1,.cls-2,.cls-3{stroke-width:0px;}.cls-2{fill:#41423d;}.cls-3{fill:#b5a481;}</style></defs><path class="cls-2" d="M22.13,63.11h4.8c1.18,0,2.08.22,2.71.68.63.45.94,1.1.94,1.95s-.31,1.5-.94,1.96c-.63.45-1.53.68-2.71.68h-1.35v-.61h.81c.8,0,1.37-.16,1.7-.49.34-.32.5-.84.5-1.54s-.17-1.22-.49-1.53-.9-.47-1.71-.47h-1.3v7.08c0,.13,0,.22.02.29.02.06.07.14.16.22.09.09.24.17.45.23s.5.13.87.19v.12h-4.48v-.12c.32-.09.56-.18.71-.29.15-.1.24-.19.27-.27.03-.08.04-.21.04-.38v-6.64c0-.17-.01-.3-.04-.38-.03-.08-.12-.17-.27-.27-.15-.1-.39-.2-.71-.29v-.12h0,0Z"/><path class="cls-2" d="M42.47,64.17v4.57c0,1.06-.34,1.87-1.02,2.42-.68.55-1.69.83-3.03.83-1.43,0-2.49-.28-3.19-.84-.7-.56-1.05-1.36-1.05-2.41v-4.57c0-.17-.01-.3-.04-.38s-.12-.17-.27-.27-.39-.2-.71-.29v-.12h3.99v.12c-.32.09-.56.18-.71.29-.15.1-.24.19-.27.27-.03.08-.04.21-.04.38v4.67c0,.82.21,1.42.64,1.79.43.38,1.11.57,2.05.57s1.61-.2,2.06-.6c.45-.4.68-1.02.68-1.86v-4.57c0-.17-.02-.3-.05-.38-.03-.08-.15-.17-.37-.27-.21-.1-.54-.2-1-.29v-.12h3.41v.12c-.35.09-.6.18-.75.29-.16.1-.25.19-.28.27-.03.08-.04.21-.04.38h0,0Z"/><path class="cls-2" d="M54.49,69.96l-.16,1.91h-7.88v-.12c.32-.09.56-.18.71-.29.15-.1.24-.19.27-.27.03-.08.04-.21.04-.38v-6.64c0-.17-.01-.3-.04-.38s-.12-.17-.27-.27c-.15-.1-.39-.2-.71-.29v-.12h7.83v1.91h-.16c-.27-.53-.5-.87-.68-1.04-.18-.17-.43-.25-.73-.25h-3.29v3.38h3.37v.61h-3.37v3.53h3.34c.31,0,.57-.07.75-.22s.46-.5.82-1.06h.16,0Z"/><path class="cls-2" d="M62.92,67.48v.06c1.01.03,1.76.24,2.28.61s.77.84.77,1.39c0,1.55-1.31,2.32-3.94,2.32h-4.51v-.12c.32-.09.56-.18.71-.29.15-.1.24-.19.27-.27.03-.08.04-.21.04-.38v-6.64c0-.17-.01-.3-.04-.38s-.12-.17-.27-.27c-.15-.1-.39-.2-.71-.29v-.12h4.61c1.09,0,1.92.18,2.5.53.57.35.86.93.86,1.72,0,.59-.21,1.08-.63,1.45-.42.38-1.06.6-1.93.66h0ZM60.49,71.25h1.09c.85,0,1.47-.12,1.85-.35.38-.24.57-.69.57-1.35s-.2-1.09-.61-1.34c-.41-.24-1.05-.37-1.92-.37h-.49v-.62h.37c.76,0,1.31-.13,1.65-.39s.51-.72.51-1.39-.17-1.12-.51-1.36-.88-.36-1.63-.36h-.88v7.52h0Z"/><path class="cls-2" d="M76.87,71.87h-7.88v-.12c.32-.09.56-.18.71-.29.15-.1.24-.19.27-.27.03-.08.04-.21.04-.38v-6.64c0-.17-.01-.3-.04-.38s-.12-.17-.27-.27c-.15-.1-.39-.2-.71-.29v-.12h3.99v.12c-.32.09-.56.18-.71.29-.15.1-.24.19-.27.27-.03.08-.04.21-.04.38v7.08h3.34c.31,0,.57-.07.75-.22s.46-.5.82-1.06h.16l-.16,1.91h0Z"/><path class="cls-2" d="M80.27,70.8c-.96-.79-1.44-1.9-1.44-3.31s.48-2.51,1.44-3.31c.96-.79,2.19-1.19,3.7-1.19s2.75.4,3.71,1.19c.96.79,1.44,1.9,1.44,3.31s-.48,2.51-1.44,3.31-2.2,1.19-3.71,1.19-2.75-.4-3.71-1.19h0ZM80.83,67.49c0,2.63,1.05,3.95,3.15,3.95s3.16-1.32,3.16-3.95-1.05-3.95-3.16-3.95-3.15,1.32-3.15,3.95Z"/><path class="cls-2" d="M103.13,67.48v.06c1.01.03,1.76.24,2.28.61s.77.84.77,1.39c0,1.55-1.31,2.32-3.94,2.32h-4.51v-.12c.32-.09.56-.18.71-.29.15-.1.24-.19.27-.27.03-.08.04-.21.04-.38v-6.64c0-.17-.01-.3-.04-.38s-.12-.17-.27-.27c-.15-.1-.39-.2-.71-.29v-.12h4.61c1.09,0,1.92.18,2.5.53.57.35.86.93.86,1.72,0,.59-.21,1.08-.63,1.45-.42.38-1.06.6-1.93.66h0ZM100.69,71.25h1.09c.85,0,1.47-.12,1.85-.35.38-.24.57-.69.57-1.35s-.2-1.09-.61-1.34c-.41-.24-1.05-.37-1.92-.37h-.49v-.62h.37c.76,0,1.31-.13,1.65-.39s.51-.72.51-1.39-.17-1.12-.51-1.36-.88-.36-1.63-.36h-.88v7.52h0Z"/><path class="cls-2" d="M110.61,70.8c-.96-.79-1.44-1.9-1.44-3.31s.48-2.51,1.44-3.31c.96-.79,2.19-1.19,3.7-1.19s2.75.4,3.71,1.19c.96.79,1.44,1.9,1.44,3.31s-.48,2.51-1.44,3.31-2.2,1.19-3.71,1.19-2.75-.4-3.71-1.19ZM111.17,67.49c0,2.63,1.05,3.95,3.15,3.95s3.16-1.32,3.16-3.95-1.05-3.95-3.16-3.95-3.15,1.32-3.15,3.95Z"/><path class="cls-2" d="M132.61,63.11v.12c-.35.09-.6.18-.75.29-.16.1-.25.19-.28.27-.03.08-.04.21-.04.38v7.72h-.71l-6.51-6.89v5.81c0,.17.02.3.05.38s.16.17.38.27c.22.1.57.2,1.03.29v.12h-3.36v-.12c.35-.09.6-.18.76-.29.16-.1.26-.19.28-.27.03-.08.04-.21.04-.38v-6.67l-.97-1.03h2.47l5.71,6.04v-4.99c0-.17-.02-.3-.05-.38-.03-.08-.16-.17-.38-.27-.22-.1-.57-.2-1.03-.29v-.12h3.36s0,0,0,0Z"/><path class="cls-2" d="M138.76,64.17v6.64c0,.17.01.3.04.38.03.08.12.17.27.27s.39.2.71.29v.12h-3.99v-.12c.32-.09.56-.18.71-.29.15-.1.24-.19.27-.27.03-.08.04-.21.04-.38v-6.64c0-.17-.01-.3-.04-.38-.03-.08-.12-.17-.27-.27-.15-.1-.39-.2-.71-.29v-.12h3.99v.12c-.32.09-.56.18-.71.29-.15.1-.24.19-.27.27-.03.08-.04.21-.04.38Z"/><path class="cls-2" d="M150.85,65.02h-.16c-.27-.53-.5-.87-.69-1.04s-.43-.25-.72-.25h-1.62v7.08c0,.17.01.3.04.38.03.08.12.17.27.27s.39.2.71.29v.12h-3.99v-.12c.32-.09.56-.18.71-.29.15-.1.24-.19.27-.27.03-.08.04-.21.04-.38v-7.08h-1.62c-.3,0-.55.08-.74.25-.19.17-.41.51-.67,1.04h-.16v-1.91h8.34v1.91h0Z"/><path class="cls-2" d="M155.15,70.8c-.96-.79-1.44-1.9-1.44-3.31s.48-2.51,1.44-3.31c.96-.79,2.19-1.19,3.7-1.19s2.75.4,3.71,1.19c.96.79,1.44,1.9,1.44,3.31s-.48,2.51-1.44,3.31-2.2,1.19-3.71,1.19-2.75-.4-3.71-1.19ZM155.71,67.49c0,2.63,1.05,3.95,3.15,3.95s3.16-1.32,3.16-3.95-1.05-3.95-3.16-3.95-3.15,1.32-3.15,3.95Z"/><path class="cls-3" d="M82.28,39.03c1.48,0,2.58.13,3.53.37.53,1.35,1.43,2.52,2.58,3.38-2.17-1.05-3.59-1.97-5.51-2.39-2.63-.58-4.97-.73-7.52-.72-.02-.11-.04-.21-.05-.32,3.03-.08,4.98-.32,6.98-.32h0,0ZM107.87,26.3c-.05-.07-.1-.14-.15-.21-1.59,1.49-2.39,2.2-3.52,3.14-2.05,1.73-3.56,2.93-4.31,3.51.36.65.63,1.35.8,2.09.77-1.01,2.35-3.03,4.31-5.34,1.01-1.19,1.8-2.12,2.87-3.19h0ZM95.72,18.75c0,1.61-.1,3.04-.27,5.1-.09,1.07-.38,3.64-.56,5.11.73.18,1.43.45,2.07.82-.16-1.17-.4-2.99-.51-4.03-.35-3.33-.43-4.41-.49-6.96-.08-.01-.16-.02-.24-.04h0ZM110.79,39.68c.02-.11.04-.21.05-.32-3.03-.08-4.98-.32-6.98-.32-1.48,0-2.58.13-3.53.37-.53,1.35-1.43,2.52-2.58,3.38,2.17-1.05,3.59-1.97,5.51-2.39,2.63-.58,4.97-.73,7.52-.72h0ZM114.14,37.11c-2.4.04-3.31,0-5.25-.15-2.03-.16-3.23-.28-6.15-.61.14-.16.62-.79.69-.86.13-.01,2.07-.36,4.93-.65.95-.1,1.86-.15,2.61-.18-.01-.1-.02-.2-.03-.3-.91-.02-1.59-.07-2.52-.16-1.19-.11-1.81-.17-3.58-.42.15-.17,1.29-1.54,1.38-1.64,1.29-.1,1.59-.11,2.64-.15.5-.02,1.03-.03,1.62-.04-.02-.08-.05-.17-.07-.25-.38,0-.85-.01-1.47-.03-1.61-.04-2.12-.1-2.23-.11,1.11-1.29,1.84-2.07,2.57-2.83-.04-.09-.08-.17-.13-.25-1.58,1.54-2.15,2.05-3.71,3.37-1.46,1.24-2.15,1.84-4.62,3.79.04.3.06.61.06.93,0,.69-.09,1.36-.26,2,.9-.12,2.77-.37,5.48-.64,3.44-.35,5.8-.46,8.03-.45,0-.12,0-.23.01-.35h0ZM107.98,21.65c-1.33,1.4-1.55,1.57-3.83,3.57-2.55,2.24-4.83,3.98-4.89,4.03l-.13-1.25s1.5-1.91,3.05-3.73c.67-.79,1.33-1.47,1.86-2-.07-.06-.15-.11-.22-.17-.43.42-.94.9-1.51,1.42-1.55,1.41-3.34,2.79-3.34,2.79-.02-.34-.19-2.3-.19-2.31.02-.02.92-1.09,2.14-2.41.28-.3.55-.59.78-.84-.08-.04-.16-.09-.24-.13-.17.17-.36.35-.56.54-1.5,1.41-2.11,1.93-2.19,2-.08-1.19-.11-2.71-.12-3.75-.09-.03-.19-.06-.28-.09,0,1.25-.04,3.45-.24,5.96-.11,1.38-.34,3.62-.47,4.91.74.53,1.38,1.18,1.89,1.92,1.14-1.53,1.46-1.91,3.23-4.08,2.51-3.07,3.54-4.22,5.49-6.16-.08-.08-.16-.16-.24-.24h0s0,0,0,0ZM81.15,29.49c1.96,2.31,3.54,4.34,4.31,5.34.17-.74.44-1.45.8-2.09-.75-.58-2.26-1.78-4.31-3.51-1.12-.95-1.93-1.65-3.52-3.14-.05.07-.1.14-.15.21,1.08,1.07,1.87,2,2.87,3.19h0ZM90.7,23.85c-.17-2.07-.28-3.49-.27-5.1-.08.01-.16.02-.24.04-.06,2.55-.14,3.63-.49,6.96-.11,1.05-.35,2.87-.51,4.03.64-.37,1.33-.65,2.07-.82-.17-1.46-.47-4.04-.56-5.11h0ZM72.02,37.45c2.24-.01,4.6.1,8.03.45,2.71.28,4.57.52,5.48.64-.17-.64-.26-1.31-.26-2,0-.31.02-.62.06-.93-2.47-1.95-3.16-2.55-4.62-3.79-1.56-1.32-2.13-1.83-3.71-3.37-.04.08-.08.17-.13.25.74.76,1.46,1.54,2.57,2.83-.11,0-.62.06-2.23.11-.62.02-1.09.02-1.47.03-.02.08-.05.17-.07.25.58,0,1.12.02,1.62.04,1.05.04,1.35.06,2.64.15.09.1,1.23,1.48,1.38,1.64-1.78.26-2.39.31-3.58.42-.93.09-1.61.14-2.52.16-.01.1-.02.2-.03.3.74.03,1.66.09,2.61.18,2.85.29,4.8.64,4.93.65.06.07.55.7.69.86-2.92.34-4.11.45-6.15.61-1.94.16-2.85.19-5.25.15,0,.12,0,.23.01.35h0,0ZM88.06,25.29c-.19-2.51-.23-4.71-.24-5.96-.09.03-.19.06-.28.09,0,1.04-.04,2.56-.12,3.75-.08-.06-.69-.59-2.19-2-.2-.19-.39-.37-.56-.54-.08.04-.16.08-.24.13.24.25.5.54.78.84,1.23,1.32,2.13,2.39,2.14,2.41,0,.02-.17,1.97-.19,2.31,0,0-1.79-1.38-3.34-2.79-.56-.51-1.08-1-1.51-1.42-.07.06-.15.11-.22.17.53.52,1.18,1.21,1.86,2,1.55,1.82,3.03,3.71,3.05,3.73l-.13,1.25c-.06-.05-2.35-1.79-4.89-4.03-2.28-2.01-2.5-2.18-3.83-3.57-.08.08-.16.16-.24.24,1.95,1.94,2.98,3.09,5.49,6.16,1.77,2.17,2.08,2.55,3.23,4.08.51-.75,1.15-1.4,1.89-1.92-.14-1.29-.36-3.53-.47-4.91h0s0,0,0,0ZM94.17,28.82c-.13-1.12-.33-3.07-.59-5.98-.29-3.21-.35-6.74-.37-7.37h-.27c-.01.62-.08,4.16-.37,7.37-.26,2.91-.47,4.86-.59,5.98.36-.05.72-.08,1.09-.08s.74.03,1.09.08h0ZM75.96,42.12c.04.12.08.24.12.35.76-.15,1.67-.24,2.71-.24,6.5,0,7.28,3.93,14.28,3.93s7.78-3.93,14.28-3.93c1.04,0,1.95.09,2.71.24.04-.12.08-.24.12-.35-1.04-.25-2.53-.48-3.87-.48-6.41,0-7.08,2.76-13.24,2.76s-6.83-2.76-13.24-2.76c-1.33,0-2.83.22-3.87.48h0ZM77.19,45.02c.06.1.11.21.17.31,0,0,0,0,.01,0,.85-.14,1.81-.2,2.88-.14,5.52.29,6.54,3.83,12.82,3.83s7.3-3.54,12.82-3.83c1.06-.06,2.03,0,2.88.14,0,0,0,0,.01,0,.06-.1.11-.21.17-.31-.35-.09-.83-.17-1.31-.24-.86-.12-1.8-.14-2.67-.1-5.13.29-6.29,2.65-11.9,2.65s-6.77-2.36-11.9-2.65c-.87-.05-1.81-.02-2.67.1-.48.06-.96.15-1.31.24h0ZM78.93,47.67c.08.1.16.2.24.3.84-.07,1.68-.05,2.54.06,4.53.58,5.8,3.72,11.36,3.72s6.83-3.14,11.36-3.72c.86-.11,1.7-.13,2.54-.06.08-.1.16-.2.24-.3-.32-.06-.8-.11-1.21-.14-.8-.06-1.61,0-2.37.1-3.84.53-5.5,2.55-10.56,2.55s-6.71-2.02-10.56-2.55c-.76-.11-1.57-.16-2.37-.1-.42.03-.9.09-1.21.14h0ZM93.07,52.91c-5.64,0-7.58-2.73-11.29-2.73-.13,0-.29,0-.45,0,.12.1.24.2.36.3,4.69.36,5.92,3.87,11.38,3.87s6.69-3.51,11.38-3.87c.12-.1.24-.2.36-.3-.16,0-.31,0-.45,0-3.71,0-5.65,2.73-11.29,2.73Z"/><path class="cls-2" d="M19.89,80.42l-1.94,2.74c-.38.04-.7.04-1.08,0l-1.96-2.76v4.45c-.43.04-1.05.04-1.5,0v-6.37c.44-.04,1.18-.04,1.61,0l2.39,3.42,2.4-3.42c.44-.04,1.14-.04,1.58,0v6.37c-.43.04-1.05.04-1.5,0v-4.43h0Z"/><path class="cls-2" d="M31.52,83.22c0,1.31-1.31,1.74-3.28,1.74s-3.29-.44-3.29-1.74v-3.14c0-1.3,1.31-1.73,3.29-1.73s3.28.44,3.28,1.73v3.14ZM30.02,80.27c0-.86-.83-.98-1.78-.98s-1.79.11-1.79.98v2.76c0,.85.84.97,1.79.97s1.78-.11,1.78-.97v-2.76Z"/><path class="cls-2" d="M36.57,80.29v4.56c-.47.05-1.02.05-1.5,0v-6.37c.52-.04,1.13-.04,1.64,0l3.46,4.65v-4.65c.53-.04,1-.04,1.5,0v6.37c-.55.04-1.14.04-1.7,0l-3.39-4.56h0Z"/><path class="cls-2" d="M47.1,79.4h-2.48c-.05-.26-.05-.65,0-.92h6.44c.05.27.05.66,0,.92h-2.47v5.45c-.43.04-1.05.04-1.5,0v-5.45h0Z"/><path class="cls-2" d="M54.01,84.85v-6.37h5.07c.06.27.06.65,0,.92h-3.57v1.77h3.44c.06.27.06.65,0,.91h-3.44v1.85h3.57c.06.26.06.66,0,.92h-5.07Z"/><path class="cls-2" d="M62.3,80.11c0-1.34,1.32-1.76,3.35-1.76.75,0,1.47.04,2.3.16.06.27.06.65,0,.91-.71-.09-1.35-.12-2.07-.12-1.16,0-2.08.1-2.08,1.03v2.64c0,.93.93,1.03,2.08,1.03.75,0,1.45-.11,2.1-.23.1.27.15.6.15.9-.86.2-1.77.29-2.48.29-2.03,0-3.35-.43-3.35-1.76v-3.09h0Z"/><path class="cls-2" d="M71.46,78.48h2.68c2.1,0,3.41.44,3.41,1.67v.68c0,.86-.69,1.32-1.84,1.51.81.79,1.45,1.71,1.97,2.51-.44.04-1.14.04-1.59,0-.5-.77-1.13-1.64-1.92-2.4h-1.21v2.4c-.46.04-1.04.04-1.5,0v-6.37h0ZM76.04,80.34c0-.81-.84-.91-1.88-.91h-1.21v2.09h1.21c1.04,0,1.88-.11,1.88-.87v-.3h0Z"/><path class="cls-2" d="M81.04,78.48c.44-.04,1.07-.04,1.5,0v6.37c-.43.04-1.05.04-1.5,0v-6.37Z"/><path class="cls-2" d="M91.37,83.44c0,1.11-1.11,1.53-2.97,1.53-.76,0-1.66-.04-2.49-.14-.06-.27-.06-.68,0-.95.93.1,1.7.13,2.48.13.83,0,1.5-.1,1.5-.73v-.35c0-.48-.24-.53-.99-.71l-1.66-.41c-.88-.22-1.35-.51-1.35-1.33v-.61c0-1.12,1.25-1.53,3.05-1.53.8,0,1.49.04,2.36.18.08.26.08.65,0,.91-.9-.11-1.54-.15-2.33-.15-.92,0-1.6.1-1.6.73v.3c0,.42.25.5,1,.69l1.66.42c.89.23,1.33.46,1.33,1.35v.66h0Z"/><path class="cls-2" d="M96.38,79.4h-2.48c-.05-.26-.05-.65,0-.92h6.44c.05.27.05.66,0,.92h-2.47v5.45c-.43.04-1.05.04-1.5,0v-5.45h0Z"/><path class="cls-2" d="M109.59,83.22c0,1.31-1.31,1.74-3.28,1.74s-3.29-.44-3.29-1.74v-3.14c0-1.3,1.31-1.73,3.29-1.73s3.28.44,3.28,1.73v3.14ZM108.09,80.27c0-.86-.83-.98-1.78-.98s-1.79.11-1.79.98v2.76c0,.85.84.97,1.79.97s1.78-.11,1.78-.97v-2.76Z"/><path class="cls-2" d="M117.73,84.85v-6.37h5.07c.06.27.06.65,0,.92h-3.57v1.77h3.44c.06.27.06.65,0,.91h-3.44v1.85h3.57c.06.26.06.66,0,.92h-5.07Z"/><path class="cls-2" d="M131.28,83.44c0,1.11-1.11,1.53-2.97,1.53-.76,0-1.66-.04-2.49-.14-.06-.27-.06-.68,0-.95.93.1,1.7.13,2.48.13.83,0,1.5-.1,1.5-.73v-.35c0-.48-.24-.53-.99-.71l-1.66-.41c-.88-.22-1.35-.51-1.35-1.33v-.61c0-1.12,1.25-1.53,3.05-1.53.8,0,1.49.04,2.36.18.08.26.08.65,0,.91-.9-.11-1.54-.15-2.33-.15-.92,0-1.6.1-1.6.73v.3c0,.42.25.5,1,.69l1.66.42c.89.23,1.33.46,1.33,1.35v.66h0Z"/><path class="cls-2" d="M136.29,79.4h-2.48c-.05-.26-.05-.65,0-.92h6.44c.05.27.05.66,0,.92h-2.47v5.45c-.43.04-1.05.04-1.5,0v-5.45h0Z"/><path class="cls-2" d="M146.52,83.28h-3.04l-.67,1.56c-.44.04-1.11.04-1.54,0l3.01-6.37c.46-.04,1.02-.04,1.47,0l3.01,6.37c-.44.04-1.12.04-1.56,0l-.69-1.56h0ZM145.01,79.78l-1.13,2.6h2.25l-1.12-2.6h0Z"/><path class="cls-2" d="M152.27,79.4h-2.48c-.05-.26-.05-.65,0-.92h6.44c.05.27.05.66,0,.92h-2.47v5.45c-.43.04-1.05.04-1.5,0v-5.45h0Z"/><path class="cls-2" d="M159.18,84.85v-6.37h5.07c.06.27.06.65,0,.92h-3.57v1.77h3.44c.06.27.06.65,0,.91h-3.44v1.85h3.57c.06.26.06.66,0,.92h-5.07Z"/><path class="cls-2" d="M172.74,83.44c0,1.11-1.11,1.53-2.97,1.53-.76,0-1.66-.04-2.49-.14-.06-.27-.06-.68,0-.95.93.1,1.7.13,2.48.13.83,0,1.5-.1,1.5-.73v-.35c0-.48-.24-.53-.99-.71l-1.66-.41c-.88-.22-1.35-.51-1.35-1.33v-.61c0-1.12,1.25-1.53,3.05-1.53.8,0,1.49.04,2.36.18.08.26.08.65,0,.91-.9-.11-1.54-.15-2.33-.15-.92,0-1.6.1-1.6.73v.3c0,.42.25.5,1,.69l1.66.42c.89.23,1.33.46,1.33,1.35v.66h0Z"/><path class="cls-3" d="M61.96,94.47v-3.11c.24-.02.55-.02.77,0v2.67h1.81c.03.13.03.32,0,.45h-2.58Z"/><path class="cls-3" d="M69.27,91.36c.2-.02.6-.02.76,0v2.32c0,.64-.67.85-1.67.85s-1.69-.22-1.69-.85v-2.32c.21-.02.58-.02.77,0v2.22c0,.41.43.47.92.47s.91-.06.91-.47v-2.22h0Z"/><path class="cls-3" d="M73.96,93.22l-1.04,1.26c-.22.02-.58.02-.81,0l1.36-1.61-1.27-1.51c.22-.02.6-.02.81,0l.94,1.17.96-1.17c.22-.02.58-.02.79,0l-1.27,1.5,1.36,1.61c-.22.02-.6.02-.81,0l-1.04-1.26h0Z"/><path class="cls-3" d="M80.49,91.36c.2-.02.6-.02.76,0v2.32c0,.64-.67.85-1.67.85s-1.69-.22-1.69-.85v-2.32c.21-.02.58-.02.77,0v2.22c0,.41.43.47.92.47s.91-.06.91-.47v-2.22h0Z"/><path class="cls-3" d="M83.78,91.36h1.38c1.08,0,1.76.21,1.76.82v.33c0,.42-.35.64-.95.74.42.38.75.83,1.02,1.23-.23.02-.59.02-.82,0-.26-.38-.58-.8-.99-1.17h-.62v1.17c-.24.02-.54.02-.77,0v-3.11ZM86.15,92.27c0-.39-.43-.45-.97-.45h-.62v1.02h.62c.54,0,.97-.06.97-.43v-.15h0Z"/><path class="cls-3" d="M90.12,93.17l-1.41-1.81c.22-.02.58-.02.81,0l1,1.38,1.02-1.38c.22-.02.56-.02.78,0l-1.43,1.81v1.31c-.22.02-.54.02-.77,0v-1.31h0Z"/><path class="cls-3" d="M97.03,91.36c.22-.02.58-.02.81,0l1.06,2.35,1.03-2.35c.22-.02.56-.02.78,0l-1.45,3.11c-.23.02-.51.02-.74,0l-1.49-3.11h0Z"/><path class="cls-3" d="M102.92,91.36c.23-.02.55-.02.77,0v3.11c-.22.02-.54.02-.77,0v-3.11Z"/><path class="cls-3" d="M106.29,94.47v-3.11c.24-.02.55-.02.77,0v2.67h1.81c.03.13.03.32,0,.45h-2.58Z"/><path class="cls-3" d="M111.07,94.47v-3.11c.24-.02.55-.02.77,0v2.67h1.81c.03.13.03.32,0,.45h-2.58Z"/><path class="cls-3" d="M118.19,93.71h-1.57l-.35.77c-.23.02-.57.02-.79,0l1.55-3.11c.24-.02.52-.02.76,0l1.55,3.11c-.23.02-.58.02-.81,0l-.35-.77h0ZM117.4,91.99l-.58,1.27h1.16l-.58-1.27h0Z"/><path class="cls-3" d="M124.19,93.78c0,.54-.57.75-1.53.75-.39,0-.86-.02-1.29-.07-.03-.13-.03-.33,0-.46.48.05.88.06,1.28.06.43,0,.77-.05.77-.36v-.17c0-.24-.12-.26-.51-.35l-.86-.2c-.45-.11-.69-.25-.69-.65v-.3c0-.55.64-.75,1.57-.75.41,0,.77.02,1.22.09.04.13.04.32,0,.45-.47-.06-.79-.07-1.2-.07-.47,0-.83.05-.83.36v.15c0,.2.13.25.52.34l.86.2c.46.11.69.23.69.66v.32h0Z"/><rect class="cls-1" width="186.15" height="110"/></svg>